# xmcd
#
# Track frame offsets:
#	150
#	15967
#	36548
#	54632
#	72132
#	90686
#	109274
#	127818
#	147007
#	165043
#	183909
#
# Disc length: 2663 seconds
#
# Revision: 0
# Processed by: cddbd v1.5.2PL0 Copyright (c) Steve Scherf et al.
# Submitted via: dBpowerAMP V4.0
#
DISCID=840a650b
DTITLE=NOMADI - ALLO SPECCHIO
DYEAR=2009
DGENRE=
TTITLE0=NOMADI (Duetto con Jarabe De Palo) - Lo specchio ti riflette (El espejo te delata)
TTITLE1=NOMADI - La dimensione
TTITLE2=NOMADI - Prenditi un po' di te
TTITLE3=NOMADI - In questo silenzio
TTITLE4=NOMADI - Qui
TTITLE5=NOMADI - La vita e' mia
TTITLE6=NOMADI - Senza nome
TTITLE7=NOMADI - Non so io ma tu
TTITLE8=NOMADI - Il ballo della sedia
TTITLE9=NOMADI - Il nulla
TTITLE10=NOMADI - Lo specchio ti riflette
EXTD=
EXTT0=
EXTT1=
EXTT2=
EXTT3=
EXTT4=
EXTT5=
EXTT6=
EXTT7=
EXTT8=
EXTT9=
EXTT10=
PLAYORDER=
